<?xml version="1.0" encoding="utf-8"?>
<!-- Generator: Adobe Illustrator 25.1.0, SVG Export Plug-In . SVG Version: 6.00 Build 0)  -->
<svg version="1.1" id="Layer_1" xmlns="http://www.w3.org/2000/svg" xmlns:xlink="http://www.w3.org/1999/xlink" x="0px" y="0px"
	 viewBox="0 0 524.9 376" style="enable-background:new 0 0 524.9 376;" xml:space="preserve">
<g>
	<g>
		<g>
			<path d="M257.2,286.6c0,0-37.8-5.7-50.6-32.9h1C207.6,253.7,236.6,252.4,257.2,286.6z"/>
			<path d="M257,293.6c0,0-30.6,22.9-59,12.9l0.7-0.7C198.7,305.7,218.2,284.2,257,293.6z"/>
			<path d="M227.5,284c0,0-33.2,19-60.1,5.5l0.8-0.6C168.2,288.9,190.2,269.9,227.5,284z"/>
			<path d="M174,254.3c0,0-34.3-5.5-45.7-30.5l0.9,0C129.3,223.8,155.7,223,174,254.3z"/>
			<path d="M198.5,264c0,0-28.9-19.3-28.9-46.7l0.8,0.4C170.4,217.7,194.8,227.9,198.5,264z"/>
			<path d="M157.7,225.8c0,0-19.7-28.6-9.5-54.1l0.6,0.7C148.9,172.4,167.7,191,157.7,225.8z"/>
			<path d="M146,218.3c0,0-34-7.4-44-32.9l0.9,0.1C102.9,185.5,129.4,186.1,146,218.3z"/>
			<path d="M136.9,193.9c0,0-30.3-17-32.4-44.3l0.9,0.3C105.3,149.9,130.4,158.2,136.9,193.9z"/>
			<path d="M131.7,160.4c0,0-27.7-21-26.1-48.3l0.8,0.4C106.5,112.6,130.2,124.2,131.7,160.4z"/>
			<path d="M137.2,170.3c0,0-0.6-34.8,21.8-50.4l0.2,0.9C159.2,120.9,164.8,146.7,137.2,170.3z"/>
			<path d="M146.9,119.8c0,0,12.7-32.4,39.5-38.2l-0.2,0.9C186.1,82.5,181.3,108.5,146.9,119.8z"/>
			<path d="M137.2,132.6c0,0-20.9-27.7-11.9-53.6l0.7,0.6C125.9,79.7,145.6,97.3,137.2,132.6z"/>
			<path d="M146.1,102.1c0,0-12.2-32.5,3.7-54.8l0.5,0.8C150.3,48.1,164.1,70.7,146.1,102.1z"/>
			<path d="M160.7,86c0,0,5-34.4,29.7-46.2v0.9C190.4,40.7,191.7,67.2,160.7,86z"/>
			<path d="M191.8,269c0,0-36.2,12.2-60-6.1l0.9-0.5C132.6,262.4,157.9,248,191.8,269z"/>
			<path d="M243.7,292.1c0,0,24.2-2.1,43.1,27.8c0,0,6.7,0.3,6.2-2.3C292.4,315,267.1,290.1,243.7,292.1z"/>
		</g>
		<g>
			<path d="M278.6,288.8c0,0,37.8-5.7,50.6-32.9h-1C328.2,255.9,299.1,254.6,278.6,288.8z"/>
			<path d="M278.8,295.8c0,0,30.6,22.9,59,12.9L337,308C337,308,317.5,286.4,278.8,295.8z"/>
			<path d="M308.3,286.2c0,0,33.2,19,60.1,5.5l-0.8-0.6C367.6,291.1,345.6,272.1,308.3,286.2z"/>
			<path d="M361.7,256.5c0,0,34.3-5.5,45.7-30.5l-0.9,0C406.5,226.1,380.1,225.2,361.7,256.5z"/>
			<path d="M337.2,266.2c0,0,28.9-19.3,28.9-46.7l-0.8,0.4C365.3,219.9,340.9,230.1,337.2,266.2z"/>
			<path d="M378.1,228.1c0,0,19.7-28.6,9.5-54.1l-0.6,0.7C386.9,174.6,368.1,193.2,378.1,228.1z"/>
			<path d="M389.8,220.5c0,0,34-7.4,44-32.9l-0.9,0.1C432.8,187.7,406.4,188.3,389.8,220.5z"/>
			<path d="M398.9,196.1c0,0,30.3-17,32.4-44.3l-0.9,0.3C430.5,152.1,405.3,160.4,398.9,196.1z"/>
			<path d="M404,162.7c0,0,27.7-21,26.1-48.3l-0.8,0.4C429.3,114.8,405.5,126.4,404,162.7z"/>
			<path d="M398.5,172.6c0,0,0.6-34.8-21.8-50.4l-0.2,0.9C376.5,123.1,371,148.9,398.5,172.6z"/>
			<path d="M388.9,122c0,0-12.7-32.3-39.5-38.2l0.2,0.9C349.7,84.7,354.4,110.7,388.9,122z"/>
			<path d="M398.6,134.9c0,0,20.9-27.7,11.9-53.6l-0.7,0.7C409.9,81.9,390.2,99.6,398.6,134.9z"/>
			<path d="M389.7,104.4c0,0,12.2-32.5-3.7-54.8l-0.5,0.8C385.5,50.4,371.7,72.9,389.7,104.4z"/>
			<path d="M375.1,88.2c0,0-5-34.4-29.7-46.2V43C345.4,43,344.1,69.4,375.1,88.2z"/>
			<path d="M344,271.2c0,0,36.2,12.2,60-6.1l-0.9-0.5C403.2,264.6,377.9,250.2,344,271.2z"/>
			<path d="M292.1,294.3"/>
		</g>
	</g>
	<g>
		<path d="M229.7,182.5v-46.1c-7.2,3.8-15.4,6.3-23.7,7.2v2.5c8.6,0,11.8,4.1,11.8,10.7v23.2c0,11.7-2.9,11.9-11.8,12.6v2.5h35.3
			v-2.5C229.7,191.8,229.7,190.4,229.7,182.5z"/>
		<path d="M267.3,157.1c-4.8-0.8-16-1.5-16-8.3c0-4.5,4.6-6.9,8.6-6.9c8.8,0,16.9,8,22.2,14.3l4.4-1.6l-5.5-18.3
			c-2.4,1.9-5.4,3.4-8.3,3.4c-3.5,0-8.8-2.2-13.4-2.2c-10.2,0-19,7.6-19,18.1c0,12.9,13,16,23.2,18.1c5.2,1.1,12.9,2.9,12.9,9.5
			c0,4.7-4.7,6.7-8.7,6.7c-10.2,0-18.6-8.2-24.5-15.7l-4,1.2l5.6,19.4c3.1-1.6,6.7-2.2,10.3-2.2c2.2,0,4.4,0.8,6.6,1.1
			c9.7,1.5,16,0,20.8-4c4.1-3.5,6.7-8.8,6.7-15C289.1,162.4,277.4,158.8,267.3,157.1z"/>
		<path d="M320.7,186.1c-5.7,0-7.2-3.9-7.2-8.1v-34.4h15.8v-5.3h-15.6v-19.6h-4.3c-3.4,10.2-5.6,18.3-19.9,19.6v5.3h7.8v34.9
			c0,6.4,3.8,15.6,15.8,15.6c6.8,0,14.4-4.1,18.7-9.6l-2.6-2.5C327,184,323.7,186.1,320.7,186.1z"/>
	</g>
</g>
</svg>
